<svg width="513" height="513" viewBox="0 0 513 513" fill="none" xmlns="http://www.w3.org/2000/svg">
<g clip-path="url(#clip0)">
<path d="M502.624 191.452C506.524 188.352 512.324 191.252 512.324 196.152V400.652C512.324 427.152 490.824 448.652 464.324 448.652H48.324C21.824 448.652 0.323975 427.152 0.323975 400.652V196.252C0.323975 191.252 6.02397 188.452 10.024 191.552C32.424 208.952 62.124 231.052 164.124 305.152C185.224 320.552 220.824 352.952 256.324 352.752C292.024 353.052 328.324 319.952 348.624 305.152C450.624 231.052 480.224 208.852 502.624 191.452ZM256.324 320.652C279.524 321.052 312.924 291.452 329.724 279.252C462.424 182.952 472.524 174.552 503.124 150.552C508.924 146.052 512.324 139.052 512.324 131.652V112.652C512.324 86.1516 490.824 64.6516 464.324 64.6516H48.324C21.824 64.6516 0.323975 86.1516 0.323975 112.652V131.652C0.323975 139.052 3.72397 145.952 9.52397 150.552C40.124 174.452 50.224 182.952 182.924 279.252C199.724 291.452 233.124 321.052 256.324 320.652Z" fill="#D44638"/>
</g>
<defs>
<clipPath id="clip0">
<rect x="0.323975" y="0.651581" width="512" height="512" fill="white"/>
</clipPath>
</defs>
</svg>
