<svg preserveAspectRatio="none" viewBox="0 0 33 33" fill="none" xmlns="http://www.w3.org/2000/svg">
<path d="M15.9061 0.687437C15.4557 0.912018 15.3727 1.04204 15.3727 1.47938C15.3727 1.98764 15.4913 2.10584 16.2142 2.35406C16.9253 2.60229 17.0676 2.83869 16.6527 3.06327C16.4276 3.18147 16.2972 3.16965 15.9416 3.01599C15.3846 2.79141 15.4083 2.79141 15.3372 3.08691C15.2779 3.32331 15.2542 3.32331 14.8038 2.95689L14.3298 2.57865L14.5075 2.15312C14.7209 1.59758 14.5668 1.12478 14.152 1.04204C13.9861 1.00658 13.5001 1.04204 13.0616 1.10114L12.2675 1.21934L12.3387 1.81034C12.3861 2.1413 12.469 2.4959 12.5164 2.59047C12.5757 2.69685 12.6587 3.06327 12.7061 3.39423C12.789 3.99705 12.8009 4.02069 13.1446 4.02069H13.512L13.429 3.42969C13.3342 2.72049 13.429 2.68503 14.1046 3.24057L14.6024 3.64245L15.8113 3.57153C16.8779 3.52425 17.0676 3.47697 17.3283 3.24057C17.9209 2.69685 17.5061 1.77488 16.6764 1.77488C16.2972 1.77488 16.0246 1.50302 16.1313 1.24298C16.2024 1.04204 16.6409 1.00658 17.0913 1.18388C17.5298 1.34936 17.6483 0.994759 17.2572 0.699257C16.9135 0.439216 16.392 0.427396 15.9061 0.687437ZM13.832 1.58576C13.832 1.6094 13.8675 1.71578 13.9031 1.81034C13.9861 2.0231 13.512 2.4959 13.2987 2.41316C13.1446 2.34224 12.9787 1.7867 13.0853 1.63304C13.1327 1.53848 13.832 1.50302 13.832 1.58576Z" fill="#049C44"/>
<path d="M18.0986 0.888358C18.0986 0.971098 18.1816 1.10112 18.2764 1.1484C18.5372 1.30206 18.3831 2.96869 18.0868 3.03961C17.7905 3.12235 17.7075 3.41785 17.9564 3.52423C18.3238 3.66607 19.3194 3.61879 19.3786 3.45331C19.4024 3.37057 19.3194 3.26419 19.189 3.22873C18.9757 3.18145 18.9638 3.09871 19.0231 2.3895C19.0824 1.53846 19.2127 1.17204 19.4261 1.21932C19.509 1.23114 19.5801 1.16022 19.6038 1.05384C19.6394 0.911998 19.5327 0.841078 19.2009 0.781978C18.4542 0.663777 18.0986 0.699237 18.0986 0.888358Z" fill="#049C44"/>
<path d="M20.0779 1.03026C19.9001 1.20756 20.0186 1.4085 20.3505 1.47942C20.552 1.5267 20.7179 1.62126 20.7179 1.69218C20.7416 1.95222 20.6823 2.30683 20.5875 2.42503C20.5401 2.48413 20.4571 2.77963 20.4097 3.07513C20.3623 3.37063 20.2557 3.64249 20.1845 3.68977C20.0897 3.76069 20.1016 3.81979 20.232 3.90253C20.6942 4.19803 20.9431 3.94981 21.192 2.95693C21.2512 2.66143 21.346 2.30683 21.3816 2.15317C21.429 1.92858 21.5238 1.8813 21.8201 1.89312C22.4008 1.92858 22.4838 1.90494 22.4838 1.71582C22.4838 1.62126 22.3416 1.51488 22.1638 1.4676C21.9742 1.43214 21.7253 1.36122 21.5949 1.30212C21.4645 1.24302 21.1682 1.16028 20.9431 1.12482C20.7179 1.07754 20.4453 1.03026 20.3386 0.994801C20.2438 0.971161 20.1253 0.982981 20.0779 1.03026Z" fill="#049C44"/>
<path d="M11.1772 1.63302C11.1416 1.69212 10.7979 1.8576 10.395 2.02308C10.0039 2.17675 9.68387 2.35405 9.68387 2.41315C9.68387 2.47225 9.79054 2.74411 9.90905 3.00415C10.3713 3.98521 10.632 4.59986 10.632 4.71806C10.632 4.919 10.8809 5.00174 11.1416 4.87172C11.2839 4.8008 11.6157 4.65896 11.8765 4.54076C12.5639 4.24525 12.6705 4.15069 12.4928 3.96157C12.3505 3.80791 11.8172 3.91429 11.4854 4.17433C11.3787 4.25707 11.2839 4.22161 11.1654 4.06795C10.8809 3.68971 10.952 3.47695 11.4616 3.27601C11.9002 3.11053 12.0779 2.82685 11.8291 2.67319C11.7698 2.63773 11.5209 2.68501 11.2839 2.79139C10.8098 2.99233 10.5135 2.94505 10.5135 2.67319C10.5135 2.51953 11.1772 2.12947 11.4498 2.12947C11.5209 2.12947 11.5802 2.05855 11.5802 1.96398C11.5802 1.76304 11.272 1.49118 11.1772 1.63302Z" fill="#049C44"/>
<path d="M22.8631 2.83866C22.8868 3.52422 22.8513 3.94974 22.7683 3.99702C22.5431 4.13886 22.4483 4.61167 22.6024 4.78897C22.8513 5.09629 23.0764 4.97809 23.3135 4.44619C23.4913 4.02066 23.6927 3.81972 24.309 3.42966C24.8305 3.0987 25.0557 2.88594 25.0083 2.76774C24.949 2.60226 24.2616 2.53134 24.2616 2.685C24.2616 2.7441 24.0957 2.87412 23.9061 2.9805L23.5505 3.18144V2.67318C23.5505 2.3304 23.4794 2.10582 23.3372 1.9758C22.8987 1.57391 22.8275 1.71575 22.8631 2.83866Z" fill="#049C44"/>
<path d="M8.67639 2.88595C8.48676 3.01597 8.47491 3.09871 8.59343 3.38239C8.66454 3.57151 8.77121 3.91429 8.83047 4.13887C8.90158 4.36345 8.98454 4.64713 9.03195 4.75351C9.15047 5.04901 8.94899 5.01355 8.59343 4.69441C7.90602 4.07977 7.39639 3.79609 7.17121 3.91429C6.74454 4.13887 6.81565 4.22161 8.81862 5.66366C9.16232 5.91188 9.24528 5.93552 9.51788 5.8055C9.77862 5.6873 9.81417 5.61638 9.76677 5.28542C9.69565 4.81261 9.45862 3.91429 9.32825 3.60697C9.26899 3.47695 9.19788 3.22873 9.16232 3.03961C9.07936 2.67318 8.99639 2.64954 8.67639 2.88595Z" fill="#049C44"/>
<path d="M15.4794 4.43444C15.432 4.4699 15.0646 4.55264 14.6498 4.62356C12.9668 4.8836 10.8572 5.84102 9.43498 6.97575C8.67646 7.57857 7.07646 9.22156 7.07646 9.38704C7.07646 9.41068 6.88683 9.718 6.66165 10.0608C6.43646 10.4154 6.24683 10.7582 6.24683 10.8409C6.24683 10.9236 6.19942 10.9946 6.12831 10.9946C6.06905 10.9946 6.00979 11.0655 6.00979 11.1364C5.99794 11.2191 5.90313 11.5028 5.77276 11.7629C5.64239 12.0229 5.54757 12.3184 5.53572 12.4248C5.53572 12.5194 5.48831 12.6494 5.42905 12.7203C5.31053 12.8385 5.10905 13.6541 4.93127 14.7179C4.78905 15.5335 4.87202 18.7485 5.03794 18.9495C5.0972 19.0322 5.19202 19.3395 5.22757 19.6468C5.27498 19.9542 5.35794 20.2378 5.42905 20.2733C5.48831 20.3206 5.53572 20.4388 5.53572 20.5452C5.54757 20.6515 5.64239 20.9589 5.77276 21.2189C5.90313 21.4789 5.99794 21.7626 6.00979 21.8335C6.00979 21.9163 6.06905 21.9872 6.12831 21.9872C6.19942 21.9872 6.24683 22.0581 6.24683 22.1409C6.24683 22.3182 7.20683 23.772 7.6572 24.2803C8.23794 24.9186 8.92535 25.5923 9.31646 25.8878C9.5298 26.0533 9.76683 26.2424 9.83794 26.3133C9.99202 26.4552 11.4498 27.3062 11.5328 27.3062C11.5565 27.3062 11.8646 27.4363 12.2083 27.6017C13.915 28.4291 17.0794 28.7837 19.1654 28.3937C20.1135 28.2046 21.8083 27.6254 22.5668 27.2353C24.0128 26.4552 26.2646 24.5758 26.4661 23.973C26.5017 23.8548 26.5728 23.7602 26.632 23.7602C26.7861 23.7602 27.8646 21.9045 28.1135 21.2189C28.232 20.8879 28.3743 20.5688 28.4217 20.5097C28.4572 20.4388 28.5639 20.1196 28.635 19.8005C28.718 19.4695 28.8365 18.9731 28.9076 18.6776C29.0735 17.992 29.0735 14.9897 28.9076 14.3042C28.5876 12.9449 28.5046 12.6848 28.3506 12.3302C28.2557 12.1293 28.1728 11.9047 28.1728 11.8338C28.1728 11.6801 28.1254 11.5856 27.3431 10.2499C27.0113 9.68254 26.6913 9.22156 26.632 9.22156C26.5728 9.22156 26.5017 9.11518 26.4543 8.99698C26.2528 8.34687 23.5743 6.18381 22.2468 5.58098C21.4054 5.21456 20.0068 4.75358 19.2246 4.59992C18.4187 4.44626 15.5861 4.31624 15.4794 4.43444ZM18.9046 5.40368C19.0824 5.45096 19.2957 5.711 19.5565 6.19563C19.7698 6.58569 19.9357 6.98757 19.9357 7.07031C19.9357 7.20033 19.3668 7.22397 17.0439 7.21215C15.4439 7.21215 14.1165 7.17669 14.0809 7.14123C14.0098 7.07031 14.792 5.56916 14.9579 5.46278C15.3135 5.2382 18.0631 5.19092 18.9046 5.40368ZM13.3461 6.56205C13.0854 7.07031 12.8602 7.35399 12.7061 7.37763C12.5757 7.40127 12.0187 7.48401 11.4617 7.54311C10.9046 7.60221 10.3594 7.69677 10.2291 7.74405C9.80239 7.93317 10.0987 7.51947 10.7031 7.11759C11.5565 6.53841 13.5594 5.62826 13.7017 5.74646C13.7254 5.7701 13.5713 6.13653 13.3461 6.56205ZM21.4883 6.16017C22.8631 6.79845 24.0483 7.59039 23.8705 7.75587C23.835 7.79133 23.6335 7.77951 23.4439 7.70859C23.2424 7.63767 22.6261 7.54311 22.0809 7.49583L21.0735 7.41309L20.718 6.68025C20.5165 6.27837 20.3505 5.91194 20.3505 5.86466C20.3505 5.711 20.718 5.80556 21.4883 6.16017ZM19.4617 8.11047C20.4454 8.19321 20.7061 8.28777 20.7061 8.61874C20.718 8.72512 20.8128 9.02062 20.9431 9.28066C21.0735 9.5407 21.1683 9.84802 21.1802 9.9544C21.1802 10.0608 21.2394 10.1908 21.2987 10.2263C21.3698 10.2617 21.4172 10.4036 21.4172 10.5336C21.4172 10.7345 21.358 10.7463 20.9194 10.6872C20.635 10.64 20.2794 10.5572 20.1135 10.4863C19.6513 10.309 15.3372 10.2381 14.3654 10.4036C13.915 10.4745 13.3342 10.569 13.0735 10.6045L12.6113 10.6636L12.6942 10.2499C12.7417 10.0253 12.8483 9.68254 12.9313 9.50524C13.0261 9.31612 13.192 8.9497 13.2987 8.67784L13.512 8.19321L14.5313 8.06319C15.5268 7.94499 17.5417 7.96863 19.4617 8.11047ZM12.4454 8.37051C12.4809 8.41779 12.4098 8.64238 12.3031 8.87878C12.1846 9.11518 11.9713 9.67072 11.8172 10.1317C11.5802 10.8764 11.4972 10.9827 11.1061 11.16C10.8691 11.2664 10.6083 11.3492 10.5254 11.3492C10.4424 11.3492 10.1579 11.4437 9.88535 11.5737C9.61276 11.6919 9.2572 11.8338 9.10313 11.8811C8.84239 11.9638 8.83054 11.952 8.87794 11.3964C8.97276 10.3917 9.2335 8.92606 9.35202 8.78422C9.41128 8.7133 9.79054 8.61874 10.1935 8.57146C10.5965 8.52418 11.035 8.44143 11.1654 8.38233C11.4735 8.26413 12.3742 8.25231 12.4454 8.37051ZM23.432 8.52418C23.9891 8.5951 24.4987 8.70148 24.558 8.74876C24.7239 8.8906 25.1861 11.1837 25.2098 11.9638C25.2098 12.0938 24.8898 12.082 24.6409 11.9402C24.5343 11.8811 23.9891 11.6565 23.432 11.4437C22.4365 11.0537 22.4246 11.0418 22.2705 10.5218C22.1876 10.2263 22.0691 9.90712 22.0217 9.81256C21.9624 9.70618 21.8794 9.45796 21.8439 9.2452C21.7965 9.04426 21.7017 8.84332 21.6424 8.80786C21.5831 8.76058 21.5357 8.63056 21.5357 8.48871C21.5357 8.27595 21.595 8.26413 21.9861 8.32323C22.2231 8.35869 22.875 8.44143 23.432 8.52418ZM8.32091 9.5998C8.2735 9.75346 8.16683 10.4036 8.09572 11.0655C7.96535 12.2948 7.83498 12.5785 7.39646 12.7203C7.25424 12.7676 6.94609 12.9212 6.70905 13.0749C6.47202 13.2286 6.24683 13.3231 6.21128 13.2877C6.06905 13.1458 6.89868 11.03 7.20683 10.7582C7.24239 10.7227 7.39646 10.4863 7.55054 10.2263C8.07202 9.37522 8.51054 9.02062 8.32091 9.5998ZM26.0394 9.68254C26.0394 9.75346 26.1935 10.0253 26.3831 10.309C26.8809 11.0655 27.4261 12.1293 27.5209 12.5312C27.5683 12.7203 27.6513 12.9094 27.7106 12.9449C27.8409 13.0276 27.8528 13.5122 27.7343 13.4531C26.9994 13.1222 26.1698 12.6139 26.1105 12.4721C26.075 12.3657 26.0394 12.0465 26.0394 11.7747C26.0394 11.491 25.992 11.1128 25.9328 10.9236C25.8735 10.7345 25.7905 10.3563 25.755 10.0726C25.6957 9.68254 25.7194 9.57616 25.8617 9.57616C25.9565 9.57616 26.0394 9.62344 26.0394 9.68254ZM19.4024 11.231C19.4972 11.2782 19.912 11.361 20.3268 11.4083C20.7298 11.4555 21.0972 11.5383 21.1328 11.5974C21.1683 11.6565 21.3224 11.7038 21.4765 11.7038C21.7135 11.7038 21.7728 11.7865 21.8913 12.2593C22.1994 13.5477 22.555 16.5027 22.4483 16.9282C22.4128 17.0819 22.318 17.7793 22.2468 18.5003C22.1757 19.2095 22.0691 19.9542 22.0098 20.1551C21.9505 20.3442 21.8676 20.6634 21.832 20.8407C21.7965 21.018 21.678 21.1953 21.5594 21.2307C21.4528 21.2662 21.2513 21.3489 21.1209 21.3962C19.8409 21.9281 13.915 21.9399 12.7061 21.408C12.5757 21.3489 12.3861 21.278 12.2794 21.2425C12.1372 21.1953 12.0424 20.9352 11.9476 20.3679C11.8646 19.9305 11.7579 19.2922 11.6987 18.9731C11.5683 18.2166 11.5683 14.9188 11.6987 14.0678C12.0187 12.1411 12.0898 11.8574 12.3387 11.7038C12.6113 11.5265 13.8913 11.2664 15.195 11.1128C16.1431 11.0064 19.1298 11.0891 19.4024 11.231ZM11.2246 12.3066C11.2246 12.4366 11.1772 12.6376 11.1179 12.7558C11.0587 12.8621 10.9165 13.7486 10.8216 14.7179C10.6557 16.3254 10.6557 16.6445 10.8216 18.323C10.9283 19.3277 11.0587 20.2497 11.1179 20.356C11.1772 20.4624 11.2246 20.6397 11.2246 20.7461C11.2246 20.8998 11.1535 20.9234 10.8454 20.8643C10.632 20.817 10.3831 20.7343 10.2765 20.6752C10.1816 20.6279 9.80239 20.4624 9.42313 20.3206C8.90165 20.1196 8.73572 19.9896 8.68831 19.7532C8.51054 19.0322 8.47498 15.3798 8.6172 14.1978L8.75943 12.9922L9.43498 12.6967C10.7387 12.1175 10.8335 12.082 11.0824 12.0702C11.1535 12.0584 11.2246 12.1647 11.2246 12.3066ZM23.432 12.3184C23.6572 12.413 24.1787 12.6494 24.5698 12.8267L25.2928 13.1458L25.3757 13.7605C25.4705 14.5406 25.4468 18.5594 25.352 19.3277L25.2691 19.9069L24.0839 20.4151C23.432 20.687 22.8631 20.8761 22.8157 20.8288C22.7446 20.7461 22.7802 20.4624 23.0765 18.784C23.1476 18.4294 23.195 17.401 23.195 16.5027C23.195 15.0252 23.1357 14.3869 22.8513 12.8267C22.7565 12.3421 22.8039 12.0229 22.9343 12.0938C22.9817 12.1175 23.2068 12.2238 23.432 12.3184ZM7.76387 16.4909C7.76387 18.1457 7.71646 19.505 7.66905 19.505C7.6098 19.505 7.20683 19.3159 6.75646 19.0913C6.22313 18.8076 5.90313 18.5594 5.80831 18.3466C5.63053 17.9566 5.60683 15.167 5.7609 14.7297C5.83202 14.5524 6.11646 14.3278 6.48387 14.1387C6.81572 13.9732 7.20683 13.7486 7.34905 13.6541C7.49128 13.5595 7.64535 13.4768 7.69276 13.4768C7.72831 13.4768 7.76387 14.8361 7.76387 16.4909ZM26.7031 13.8668C26.8928 13.9378 27.2957 14.1623 27.592 14.3396L28.1491 14.6706L28.232 15.5571C28.3506 16.7864 28.1965 18.3348 27.9476 18.5358C27.7106 18.7249 26.4305 19.3868 26.312 19.3868C26.2646 19.3868 26.2172 18.1102 26.2172 16.55C26.2172 14.9897 26.2528 13.7132 26.2883 13.7132C26.3357 13.7132 26.5254 13.7841 26.7031 13.8668ZM27.592 20.2969C27.3313 21.0416 26.8572 21.9636 26.312 22.791L25.8617 23.4647L25.8261 23.0156C25.8024 22.7555 25.838 22.3891 25.9091 22.2C25.9802 21.999 26.0394 21.5617 26.0394 21.2307C26.0394 20.8998 26.0868 20.5688 26.1343 20.4979C26.2291 20.356 27.4498 19.7414 27.6513 19.7414C27.7343 19.7414 27.7106 19.9305 27.592 20.2969ZM7.18313 20.2142C7.9772 20.6043 7.96535 20.6043 8.08387 21.9281C8.13128 22.3773 8.21424 22.9328 8.2972 23.1338C8.55794 23.9021 8.10757 23.6657 7.55054 22.7555C7.39646 22.4955 7.23054 22.2591 7.19498 22.2236C7.06461 22.1054 6.3535 20.5452 6.28239 20.2024C6.19942 19.765 6.28239 19.7769 7.18313 20.2142ZM25.2098 21.018C25.2098 21.3371 24.9491 23.181 24.8424 23.5829C24.7002 24.1621 24.475 24.2803 23.195 24.4576C22.7091 24.5285 22.1283 24.6231 21.9268 24.6585C21.5713 24.7295 21.5357 24.7058 21.5357 24.4458C21.5357 24.2921 21.5831 24.1148 21.6424 24.0439C21.7135 23.9848 21.915 23.4884 22.0928 22.9328L22.4246 21.9399L23.0172 21.7153C23.3491 21.5853 23.6928 21.4435 23.7876 21.3962C23.8943 21.3489 24.1431 21.2662 24.3565 21.2307C24.558 21.1834 24.7594 21.0889 24.795 21.0298C24.8898 20.8998 25.2098 20.8879 25.2098 21.018ZM9.88535 21.408C10.1579 21.538 10.4424 21.6326 10.5254 21.6326C10.6083 21.6326 10.8691 21.7272 11.1179 21.8335C11.4617 21.9754 11.592 22.1172 11.6513 22.3891C11.6868 22.59 11.7579 22.8028 11.7935 22.8737C11.9002 23.0392 12.4098 24.5049 12.4098 24.6349C12.4098 24.6822 12.2083 24.694 11.9713 24.6585C11.7224 24.6231 11.0587 24.5285 10.5016 24.4576C9.64831 24.3394 9.44683 24.2803 9.35202 24.0675C9.19794 23.7602 8.96091 22.5073 8.8898 21.6562C8.83054 21.0298 8.84239 21.018 9.11498 21.1007C9.2572 21.148 9.61276 21.2898 9.88535 21.408ZM14.4839 22.5782C15.3372 22.7201 18.395 22.7201 19.2246 22.5782C19.5565 22.5309 20.1609 22.4246 20.5757 22.3536C21.3935 22.2 21.5357 22.2472 21.3342 22.5546C21.2631 22.6728 21.1683 22.9446 21.1209 23.1692C21.0735 23.3938 20.9905 23.6538 20.9313 23.7602C20.8839 23.8548 20.7535 24.1266 20.6468 24.363L20.4572 24.7886L18.7624 24.8595C17.8261 24.9068 16.2498 24.9068 15.2661 24.8595L13.4646 24.7886L13.2394 24.2803C13.1091 23.9966 13.0024 23.6893 13.0024 23.5947C13.0024 23.4884 12.955 23.4056 12.9076 23.4056C12.8009 23.4056 12.5165 22.4482 12.5876 22.33C12.6231 22.2945 12.8957 22.3063 13.2039 22.3536C13.512 22.4127 14.0928 22.5073 14.4839 22.5782ZM11.7935 25.4387L12.8957 25.5687L13.2157 26.2306C13.3935 26.597 13.5713 26.9043 13.6305 26.928C13.6779 26.9516 13.7135 27.0225 13.7135 27.0816C13.7135 27.2235 13.2987 27.2235 13.0261 27.0816C12.9194 27.0107 12.5046 26.8216 12.1135 26.6443C11.2957 26.2779 9.92091 25.4032 9.92091 25.2614C9.92091 25.2023 10.0987 25.1904 10.312 25.2259C10.5135 25.2732 11.1891 25.3677 11.7935 25.4387ZM23.6691 25.545C23.2543 25.9115 20.7891 27.188 20.5046 27.188C20.2794 27.188 20.315 27.0225 20.718 26.2542L21.0854 25.5569L21.8794 25.4859C22.3298 25.4387 22.8394 25.3559 23.0291 25.2968C23.2187 25.2495 23.5387 25.1904 23.7283 25.1904L24.0839 25.1786L23.6691 25.545ZM19.995 25.7933C19.995 25.8287 19.8172 26.207 19.592 26.6207C19.0587 27.6136 18.8691 27.6963 17.1031 27.6963C15.432 27.7081 14.8394 27.6136 14.7328 27.3299C14.6972 27.2235 14.5076 26.8334 14.3179 26.4788C14.1283 26.1242 13.9861 25.8051 14.0098 25.7696C14.0691 25.6869 19.995 25.6987 19.995 25.7933Z" fill="#049C44"/>
<path d="M16.0246 12.3302C15.2898 12.5784 14.4601 13.0275 14.0809 13.3821C12.5638 14.8005 12.3268 17.2473 13.5475 18.9139C14.0216 19.5758 14.2586 19.7768 15.112 20.2496C15.7401 20.5924 15.8586 20.616 16.9727 20.616C18.0275 20.6278 18.229 20.5924 18.8335 20.2969C19.5446 19.9541 20.469 19.1858 20.469 18.9376C20.469 18.8548 20.5164 18.7957 20.5638 18.7957C20.6231 18.7957 20.789 18.512 20.9431 18.1693C21.1564 17.6846 21.2157 17.33 21.2275 16.4908C21.2275 15.5216 21.2038 15.3561 20.8364 14.6351C20.4216 13.7722 19.6512 12.9921 18.9283 12.6848C17.7431 12.1883 16.7831 12.0583 16.0246 12.3302Z" fill="#049C44"/>
<path d="M25.838 4.76533C24.9017 5.69912 25.1031 6.84566 26.2646 7.33028C26.5965 7.4603 26.7031 7.4603 27.0469 7.29482C27.5565 7.05842 27.9357 6.72746 27.9357 6.53834C27.9357 6.4556 27.995 6.38468 28.0543 6.38468C28.1254 6.38468 28.1728 6.11282 28.1728 5.77004C28.1728 5.2145 28.1254 5.11994 27.7461 4.76533C27.3787 4.43437 27.2246 4.37527 26.7624 4.38709C26.312 4.38709 26.1461 4.45801 25.838 4.76533ZM27.3906 5.1554C27.6987 5.46272 27.6157 5.87642 27.1535 6.32558C26.6913 6.77474 26.3476 6.84566 26.0157 6.53834C25.7906 6.3374 25.7194 5.79368 25.9209 5.79368C25.992 5.79368 26.0394 5.72276 26.0394 5.64002C26.0394 5.48636 26.3713 5.1554 26.6439 5.04902C26.952 4.93081 27.2009 4.96627 27.3906 5.1554Z" fill="#049C44"/>
<path d="M5.84386 5.07269C5.36979 5.55731 5.35793 5.86463 5.8083 5.74643C6.17571 5.65187 7.3846 6.91662 7.17127 7.17666C7.0646 7.3185 7.0646 7.36578 7.20682 7.46034C7.45571 7.614 7.45571 7.614 8.0246 7.03482C8.45127 6.59747 8.51053 6.50291 8.3446 6.43199C8.23794 6.39653 8.07201 6.38471 7.97719 6.42017C7.71645 6.52655 6.59053 5.30909 6.62608 4.96631C6.68534 4.51715 6.35349 4.55261 5.84386 5.07269Z" fill="#049C44"/>
<path d="M4.5875 6.39655C4.43343 6.68023 4.38602 6.62113 5.13268 7.16485L5.71343 7.59037L4.75343 7.50763C3.81713 7.43671 3.79342 7.44853 3.60379 7.73221C3.48528 7.89769 3.40231 8.07499 3.40231 8.12227C3.40231 8.16955 3.75787 8.45324 4.18454 8.74874C4.6112 9.04424 5.07343 9.3752 5.21565 9.4934C5.34602 9.6116 5.5712 9.69434 5.70157 9.6707C6.15194 9.6116 6.02157 9.29246 5.34602 8.80784C4.97861 8.5478 4.65861 8.29957 4.62305 8.24047C4.5875 8.19319 5.09713 8.18137 5.74898 8.22865C6.76824 8.29957 6.93417 8.28775 6.99343 8.11045C7.07639 7.89769 6.98158 7.56673 6.83935 7.56673C6.79195 7.56673 6.32972 7.24759 5.79639 6.85753C5.27491 6.46747 4.81268 6.14833 4.77713 6.14833C4.74157 6.14833 4.65861 6.25471 4.5875 6.39655Z" fill="#049C44"/>
<path d="M28.9787 6.53834C28.8957 6.60926 28.5165 6.89294 28.1491 7.14116C27.7698 7.4012 27.4617 7.64943 27.4617 7.70853C27.4617 7.75581 27.3905 7.80309 27.2957 7.80309C26.9639 7.80309 26.8691 8.08677 27.118 8.39409C27.3194 8.65413 27.3668 8.66595 27.4972 8.51229C27.5683 8.41773 27.7935 8.22861 27.9831 8.11041C28.3268 7.89765 28.3387 7.89765 28.4809 8.11041C28.7654 8.53593 29.0261 8.73687 29.192 8.66595C29.4172 8.58321 29.4054 8.42955 29.1209 8.07495C28.8365 7.72035 28.8246 7.53122 29.0498 7.3421C29.1802 7.23572 29.2868 7.30664 29.595 7.68489C29.998 8.18133 30.152 8.26407 30.2587 7.99221C30.318 7.83855 29.3817 6.3965 29.2157 6.38468C29.1683 6.38468 29.0617 6.4556 28.9787 6.53834Z" fill="#049C44"/>
<path d="M2.71492 9.2688C2.60825 9.51702 2.6201 9.58794 2.86899 9.7416C3.02306 9.84798 3.18899 9.93072 3.22455 9.93072C3.27195 9.93072 3.59195 10.0607 3.94751 10.2262C4.56381 10.5099 4.59936 10.5454 4.56381 10.9118C4.5401 11.2073 4.46899 11.3018 4.24381 11.3255C4.08973 11.3491 3.85269 11.3137 3.71047 11.2427C3.14158 10.9709 2.33566 10.6399 2.22899 10.6399C2.06306 10.6399 1.88529 11.0182 1.94454 11.1955C1.9801 11.2782 2.05121 11.3491 2.11047 11.3491C2.22899 11.3491 3.18899 11.751 3.54455 11.9401C4.27936 12.3538 5.21566 11.621 5.21566 10.6517C5.21566 10.1671 5.04973 10.0016 4.13714 9.57612C3.69862 9.37518 3.24825 9.1506 3.14158 9.0915C2.85714 8.94966 2.86899 8.94966 2.71492 9.2688Z" fill="#049C44"/>
<path d="M30.1876 9.98979C29.9505 10.238 29.9268 10.3562 29.9861 10.8527C30.0572 11.4909 29.9505 11.7746 29.6661 11.6682C29.4172 11.5737 29.2039 11.0181 29.275 10.6044C29.3224 10.2498 29.1683 10.1907 28.8246 10.439C28.3268 10.8054 29.2157 12.4129 29.915 12.4129C30.0927 12.4129 30.3416 12.2829 30.5076 12.0938C30.7683 11.8219 30.792 11.7155 30.7209 11.1482C30.6616 10.6399 30.6735 10.5099 30.8276 10.4508C31.1476 10.3326 31.3727 10.6281 31.3727 11.1836C31.3727 11.7392 31.5624 11.8692 31.8468 11.5264C32.0839 11.2309 31.7757 10.3326 31.3135 9.97797C30.8394 9.61155 30.5431 9.62337 30.1876 9.98979Z" fill="#049C44"/>
<path d="M30.2823 12.6256C29.9268 12.8384 29.5949 13.3467 29.5949 13.6658C29.5949 13.784 29.6779 14.115 29.7845 14.3868C29.9505 14.8242 30.0334 14.8951 30.3179 14.8951C30.6853 14.8951 30.7682 14.7296 30.4838 14.5759C30.1757 14.3986 30.1401 13.8076 30.4245 13.4412C30.6379 13.1694 30.7682 13.1221 31.2542 13.1221C31.9534 13.1221 32.1549 13.323 32.1194 14.0204C32.1075 14.4577 32.1431 14.5405 32.3327 14.5405C32.8305 14.5405 32.7119 13.0866 32.1668 12.6375C31.8349 12.3656 30.7445 12.3538 30.2823 12.6256Z" fill="#049C44"/>
<path d="M1.64825 13.5359C0.972695 14.0323 0.842324 14.9779 1.36381 15.6044C1.67195 15.9708 1.76677 16.0062 2.46603 16.0535C3.10603 16.089 3.27196 16.0653 3.54455 15.8408C4.1727 15.3561 4.20825 14.2214 3.62751 13.6777C3.28381 13.3586 2.02751 13.264 1.64825 13.5359ZM3.34307 14.3042C3.63936 14.5524 3.56825 15.0725 3.20084 15.3089C2.92825 15.498 2.80973 15.5098 2.34751 15.3798C1.52973 15.167 1.30455 14.7415 1.75492 14.2923C1.96825 14.0796 2.11047 14.0559 2.58455 14.0914C2.90455 14.1269 3.2364 14.2214 3.34307 14.3042Z" fill="#049C44"/>
<path d="M30.0335 15.2025C29.9861 15.2497 29.9505 15.6043 29.9505 15.9826C29.9505 16.5854 29.9742 16.6682 30.1875 16.6682C30.3179 16.6682 30.4246 16.5972 30.4246 16.5027C30.4246 16.3845 30.6735 16.3136 31.3135 16.2545C32.2379 16.1717 32.4394 16.219 32.4394 16.5027C32.4394 16.5972 32.5461 16.6682 32.6764 16.6682C32.8898 16.6682 32.9135 16.5854 32.9135 15.9589C32.9135 15.1906 32.6883 14.907 32.4038 15.297C32.2972 15.4389 32.0009 15.5216 31.4083 15.5689C30.6142 15.628 30.5312 15.6162 30.3416 15.3798C30.2231 15.2379 30.0809 15.1552 30.0335 15.2025Z" fill="#049C44"/>
<path d="M0.913452 16.7508C0.913452 17.07 1.05567 17.2118 1.5416 17.4128C1.77864 17.5191 1.98012 17.6492 1.98012 17.7201C1.98012 17.7792 1.79049 17.9328 1.5653 18.0747C1.23345 18.2638 1.15049 18.3938 1.15049 18.6775C1.15049 18.8666 1.17419 19.0321 1.20975 19.0321C1.2453 19.0321 1.63642 18.7957 2.07493 18.512C2.59642 18.1811 3.05864 17.9683 3.4379 17.921C3.99494 17.8383 4.0542 17.7792 3.92382 17.4482C3.86457 17.3064 3.68679 17.2591 3.22456 17.2591C2.77419 17.2591 2.41864 17.1645 1.90901 16.9045C1.10308 16.5026 0.913452 16.4672 0.913452 16.7508Z" fill="#049C44"/>
<path d="M29.9149 17.6255C29.7845 18.713 29.8083 18.9139 30.069 18.9139C30.2586 18.9139 30.306 18.8312 30.306 18.4647C30.306 17.8265 30.4364 17.6728 30.8512 17.8146C31.0883 17.8974 31.1831 18.0038 31.1712 18.1574C31.1594 18.2756 31.1357 18.512 31.112 18.6775C31.0883 18.9021 31.1357 18.973 31.3134 18.973C31.4912 18.973 31.5742 18.8548 31.6571 18.4647C31.7283 18.1101 31.8231 17.9683 31.9771 17.9683C32.2853 17.9683 32.3445 18.1338 32.2142 18.6775C32.1312 19.0676 32.1431 19.1739 32.2853 19.233C32.3801 19.2685 32.4986 19.2567 32.5579 19.1976C32.6645 19.0912 32.9371 17.4837 32.866 17.4128C32.8305 17.3773 32.4275 17.3182 30.5312 17.07L29.986 16.9991L29.9149 17.6255Z" fill="#049C44"/>
<path d="M3.34312 19.4576C2.83349 20.0368 2.71497 20.1196 2.51349 20.0132C2.01571 19.7531 1.35201 19.4931 1.3046 19.5404C1.2809 19.5758 1.29275 19.7295 1.3283 19.8832C1.39941 20.1668 2.02756 20.5687 2.38312 20.5687C2.47793 20.5687 2.6083 20.6397 2.67941 20.7342C2.78608 20.8642 2.71497 20.9233 2.27645 21.0534C1.9209 21.1597 1.74312 21.2779 1.74312 21.408C1.74312 21.7035 2.03941 21.9044 2.30016 21.7744C2.41867 21.7153 2.73867 21.6207 3.01127 21.5734C3.29571 21.5262 3.5446 21.4434 3.59201 21.3843C3.62756 21.3252 3.75793 21.2779 3.87645 21.2779C3.99497 21.2779 4.23201 21.2307 4.38608 21.1716C4.61127 21.077 4.65868 20.9943 4.62312 20.7579C4.56386 20.486 4.5283 20.4742 3.98312 20.5333C3.66312 20.5687 3.40238 20.5806 3.40238 20.5451C3.40238 20.5096 3.59201 20.2496 3.81719 19.9659C4.26756 19.3867 4.30312 19.2922 4.07793 18.9967C3.94756 18.8075 3.87645 18.8548 3.34312 19.4576Z" fill="#049C44"/>
<path d="M29.749 19.3513C29.666 19.3868 29.5949 19.505 29.5949 19.6114C29.5949 19.765 29.7727 19.8951 30.1638 20.0251C31.3964 20.4742 31.3727 20.4506 30.8394 20.6279C30.5786 20.7106 30.1046 20.817 29.7964 20.8643C29.346 20.9234 29.2038 21.0061 29.0971 21.2307C28.9194 21.609 28.9786 21.6444 30.2468 22.0345C31.5268 22.4364 31.7757 22.46 31.8231 22.1645C31.8586 21.9163 31.5505 21.739 30.8749 21.5853C30.3416 21.4671 30.4957 21.3135 31.2897 21.1716C31.7875 21.0889 32.0957 20.9707 32.2379 20.7934C32.6527 20.2851 32.5223 20.1669 31.2305 19.7414C30.5549 19.5286 29.986 19.3395 29.9505 19.3277C29.9149 19.3159 29.8201 19.3277 29.749 19.3513Z" fill="#049C44"/>
<path d="M3.69863 21.8808C2.5253 22.2354 2.26456 23.6892 3.22456 24.4221C3.81715 24.8712 4.68234 24.7294 5.34604 24.0675C5.71345 23.7011 5.7016 22.6254 5.32234 22.2472C4.84827 21.7744 4.38604 21.668 3.69863 21.8808ZM4.83641 22.59C5.23938 22.8736 5.26308 23.0864 4.95493 23.4174C4.43345 23.9847 3.61567 24.162 3.33123 23.7838C2.98752 23.3346 3.17715 22.9564 3.95938 22.5309C4.39789 22.2945 4.43345 22.2945 4.83641 22.59Z" fill="#049C44"/>
<path d="M28.9194 22.3063C28.2794 22.4245 27.592 23.7838 28.0187 24.0793C28.3031 24.2921 28.3979 24.2684 28.3268 24.0084C28.1727 23.4292 28.9431 22.8264 29.5239 23.051C30.3535 23.3701 30.5431 24.1266 29.9268 24.6467C29.6305 24.8949 29.5831 24.9776 29.7253 25.0722C30.1164 25.3204 30.3772 25.1549 30.8157 24.3866C31.0883 23.902 31.0764 23.6065 30.7564 23.1219C30.3772 22.5427 29.5713 22.1881 28.9194 22.3063Z" fill="#049C44"/>
<path d="M26.9519 24.7294C26.3949 25.3559 26.2764 25.6869 26.5253 25.8405C26.6556 25.9114 27.1653 25.4268 27.2601 25.1431C27.3312 24.9304 27.9356 25.2495 27.9356 25.5096C27.9356 25.6159 27.829 25.8051 27.6986 25.9233C27.5682 26.0296 27.4616 26.1951 27.4616 26.2897C27.4616 26.6325 27.7223 26.6207 28.0542 26.2542C28.4334 25.8523 28.5282 25.8169 28.7416 26.0296C28.8364 26.1242 28.789 26.266 28.5164 26.6088C28.1608 27.058 28.149 27.3062 28.4571 27.3062C28.5519 27.3062 28.8719 27.0107 29.1919 26.6443L29.7608 25.9705L29.2275 25.5214C28.9431 25.2732 28.5519 24.9304 28.3742 24.7649C27.5682 24.0439 27.5564 24.0439 26.9519 24.7294Z" fill="#049C44"/>
<path d="M6.23495 24.6822C6.12829 24.7885 5.86755 25.0131 5.65421 25.1786C5.45273 25.3441 5.20384 25.545 5.12088 25.6159C4.88384 25.8405 4.70606 25.8051 4.42162 25.4977C4.20829 25.2732 4.13718 25.2495 4.01866 25.3677C3.93569 25.4505 3.87643 25.5568 3.87643 25.5923C3.87643 25.7814 5.2631 27.3062 5.44088 27.3062C5.70162 27.3062 5.72532 27.0344 5.47644 26.8334C5.20384 26.6088 5.2631 26.3251 5.64236 26.0651C5.82014 25.9351 6.2231 25.6159 6.53125 25.3677C7.05273 24.9304 7.06459 24.8949 6.88681 24.6822C6.63792 24.4221 6.48384 24.4221 6.23495 24.6822Z" fill="#049C44"/>
<path d="M24.0128 28.2163C23.9417 28.3936 23.835 28.5709 23.7757 28.6182C23.7046 28.6537 23.7283 28.7482 23.8469 28.8428C23.9654 28.9373 24.0246 28.9492 24.0246 28.8546C24.0246 28.5709 24.3328 28.7482 24.6409 29.221C24.9254 29.6702 24.9372 29.7411 24.7832 29.9184C24.5698 30.1548 24.5698 30.3794 24.795 30.3794C24.8898 30.3794 24.9728 30.3203 24.9728 30.2612C24.9728 30.1903 25.0202 30.143 25.0795 30.143C25.2928 30.143 26.0276 29.6111 26.0395 29.4574C26.0395 29.3392 25.9446 29.3156 25.6839 29.3747C25.4113 29.4338 25.3283 29.4102 25.3283 29.2683C25.3283 29.1619 25.2928 29.0792 25.2454 29.0792C25.1861 29.0792 24.9965 28.8073 24.8187 28.4882C24.4395 27.8263 24.1906 27.7435 24.0128 28.2163Z" fill="#049C44"/>
<path d="M8.59349 28.3818C8.29719 28.5473 8.33275 29.0201 8.64089 29.3156C8.85423 29.5047 8.86608 29.5875 8.74756 29.7057C8.62904 29.8239 8.54608 29.7884 8.33275 29.5402C8.19052 29.3747 8.01275 29.2565 7.92978 29.292C7.52682 29.422 8.11941 30.0248 8.74756 30.1076C9.15052 30.1667 9.22163 30.143 9.34015 29.8593C9.47052 29.5756 9.45867 29.5165 9.17423 29.221C8.99645 29.0319 8.85423 28.8546 8.85423 28.8073C8.85423 28.6537 9.3046 28.7246 9.44682 28.9019C9.6246 29.1265 9.80238 29.1265 9.80238 28.9255C9.80238 28.5237 8.97275 28.1454 8.59349 28.3818Z" fill="#049C44"/>
<path d="M10.4778 28.5236C10.4067 28.7009 10.8215 29.0082 10.9282 28.8546C11.023 28.6891 10.869 28.37 10.6912 28.37C10.6082 28.37 10.5134 28.4409 10.4778 28.5236Z" fill="#049C44"/>
<path d="M22.1638 28.961C21.7016 29.2447 21.6186 29.812 22.0098 30.0484C22.1638 30.1548 22.2231 30.273 22.1757 30.4503C22.0572 30.9113 22.3179 31.2068 22.8275 31.2068C23.4675 31.2068 23.9298 30.8285 23.8823 30.3321C23.8586 30.0839 23.7638 29.9302 23.5861 29.8475C23.3846 29.7647 23.3135 29.6347 23.3135 29.3747C23.3135 28.7009 22.8512 28.5355 22.1638 28.961ZM22.8986 29.3983C22.9816 29.6347 22.7683 29.7766 22.472 29.7056C22.2112 29.6347 22.1875 29.4929 22.389 29.2683C22.5668 29.0792 22.792 29.1383 22.8986 29.3983ZM23.3135 30.4267C23.3135 30.7813 23.1594 30.8995 22.8394 30.7931C22.6853 30.7458 22.6023 30.6158 22.6023 30.4267C22.6023 30.1903 22.6616 30.143 22.9579 30.143C23.2542 30.143 23.3135 30.1903 23.3135 30.4267Z" fill="#049C44"/>
<path d="M9.8142 29.8002C9.56531 30.2848 9.47049 30.5685 9.55345 30.6512C9.76679 30.864 10.0038 30.6512 10.3238 29.9775C10.6912 29.2092 10.7031 29.0792 10.4186 29.0792C10.2646 29.0792 10.0749 29.3156 9.8142 29.8002Z" fill="#049C44"/>
<path d="M10.9875 29.7411C10.9164 29.9066 10.869 30.0839 10.869 30.1312C10.869 30.1785 10.7861 30.3912 10.6794 30.5922C10.4898 30.9822 10.5372 31.2068 10.7979 31.2068C10.952 31.2068 11.1298 30.9231 11.3431 30.3439C11.4261 30.1194 11.5327 30.0248 11.6631 30.0484C11.9475 30.1075 11.995 30.4385 11.7698 30.9113C11.5209 31.4196 11.5327 31.5259 11.8053 31.5969C12.0424 31.656 12.1727 31.4668 12.4098 30.7104C12.6231 30.0248 12.4335 29.682 11.9001 29.7766C11.8527 29.7884 11.6868 29.7175 11.5446 29.6111C11.2009 29.3629 11.1179 29.3865 10.9875 29.7411Z" fill="#049C44"/>
<path d="M20.149 29.6347C19.8527 29.7884 19.7579 29.9066 19.7579 30.1548C19.7579 30.3203 19.8409 30.5331 19.9357 30.6158C20.0661 30.7222 20.1016 30.8759 20.0423 31.1595C19.9357 31.7033 20.1372 31.916 20.7653 31.916C21.7372 31.916 22.1875 31.0413 21.4527 30.5922C21.2631 30.474 21.192 30.3794 21.2749 30.3794C21.4764 30.3794 21.4527 29.812 21.2512 29.5993C21.0261 29.3865 20.6231 29.3983 20.149 29.6347ZM20.8009 29.9302C21.0379 30.1666 20.9668 30.3794 20.6468 30.3794C20.4335 30.3794 20.3505 30.3203 20.3505 30.1666C20.3505 29.7884 20.552 29.682 20.8009 29.9302ZM21.1564 31.1359C21.2157 31.4314 21.0142 31.5969 20.7179 31.5023C20.552 31.455 20.469 31.325 20.469 31.1359C20.469 30.8759 20.5164 30.8404 20.789 30.8759C21.0023 30.8995 21.1327 30.9941 21.1564 31.1359Z" fill="#049C44"/>
<path d="M18.1698 30.1548C17.8024 30.4385 17.7668 30.734 18.0987 30.734C18.2527 30.734 18.3357 30.8167 18.3357 30.9585C18.3357 31.0767 18.3713 31.3368 18.4068 31.5259C18.4661 31.8214 18.4305 31.8923 18.229 31.9514C18.0868 31.9869 17.9802 32.0933 17.9802 32.1878C17.9802 32.3415 18.0987 32.3651 18.6676 32.306C19.035 32.2706 19.3905 32.1997 19.4498 32.1524C19.592 32.0105 19.4261 31.7978 19.2365 31.8687C19.1179 31.916 19.035 31.715 18.9283 31.0649C18.7031 29.7293 18.7031 29.7293 18.1698 30.1548Z" fill="#049C44"/>
<path d="M13.2394 30.3439C12.9312 30.474 12.7772 30.7813 12.7653 31.2304C12.7653 31.5732 12.8364 31.7151 13.109 31.9042C13.5594 32.2233 14.1875 32.2352 14.1875 31.9278C14.1875 31.7624 14.1164 31.7269 13.8794 31.7742C13.5238 31.8333 13.3579 31.656 13.3579 31.1832C13.3579 30.7695 13.7016 30.5685 14.1164 30.734C14.4364 30.8522 14.5787 30.7576 14.4364 30.5094C14.3298 30.3439 13.512 30.2257 13.2394 30.3439Z" fill="#049C44"/>
<path d="M14.9224 30.734C14.7446 30.8995 14.6616 31.1122 14.6616 31.4196C14.6616 31.9278 14.7209 32.0224 15.1594 32.3061C15.5861 32.5661 16.0483 32.5661 16.1905 32.2824C16.3446 32.0106 16.2379 31.9042 15.8942 31.9869C15.6098 32.0578 15.1357 31.8687 15.1357 31.6796C15.1357 31.6087 15.4083 31.5614 15.7283 31.5614C16.2972 31.5614 16.3209 31.5496 16.3209 31.2304C16.3209 30.5567 15.4438 30.2494 14.9224 30.734ZM15.8468 31.0295C15.8468 31.1477 15.7283 31.2068 15.4913 31.2068C15.1475 31.2068 15.0409 31.1004 15.2187 30.9349C15.3727 30.7813 15.8468 30.8522 15.8468 31.0295Z" fill="#049C44"/>
</svg>
