<svg width="513" height="513" viewBox="0 0 513 513" fill="none" xmlns="http://www.w3.org/2000/svg">
<g clip-path="url(#clip0)">
<path d="M459.588 151.827C459.913 156.375 459.913 160.924 459.913 165.472C459.913 304.192 354.33 464.03 161.355 464.03C101.903 464.03 46.6754 446.811 0.218384 416.924C8.66538 417.898 16.7864 418.223 25.5584 418.223C74.6134 418.223 119.771 401.655 155.832 373.391C109.7 372.416 71.0404 342.203 57.7204 300.619C64.2184 301.593 70.7154 302.243 77.5384 302.243C86.9594 302.243 96.3814 300.943 105.152 298.67C57.0714 288.923 21.0094 246.69 21.0094 195.685V194.386C34.9784 202.183 51.2234 207.056 68.4404 207.705C40.1764 188.862 21.6594 156.7 21.6594 120.314C21.6594 100.822 26.8564 82.9536 35.9534 67.3596C87.6084 131.035 165.253 172.618 252.318 177.167C250.694 169.37 249.719 161.249 249.719 153.127C249.719 95.2986 296.501 48.1926 354.653 48.1926C384.866 48.1926 412.155 60.8626 431.323 81.3296C455.038 76.7816 477.779 68.0096 497.922 55.9896C490.124 80.3556 473.556 100.823 451.79 113.817C472.907 111.544 493.374 105.695 512.216 97.5736C497.924 118.365 480.055 136.882 459.588 151.827V151.827Z" fill="#1DA1F2"/>
</g>
<defs>
<clipPath id="clip0">
<rect x="0.218384" y="0.110596" width="512" height="512" fill="white"/>
</clipPath>
</defs>
</svg>
