<svg width="28" height="23" viewBox="0 0 28 23" fill="currentColor" xmlns="http://www.w3.org/2000/svg">
<path d="M4 18.894C4 18.6284 3.76563 18.394 3.5 18.394H0.5C0.234375 18.394 0 18.6284 0 18.894V21.894C0 22.1596 0.234375 22.394 0.5 22.394H3.5C3.76563 22.394 4 22.1596 4 21.894V18.894ZM4 12.894C4 12.6284 3.76563 12.394 3.5 12.394H0.5C0.234375 12.394 0 12.6284 0 12.894V15.894C0 16.1596 0.234375 16.394 0.5 16.394H3.5C3.76563 16.394 4 16.1596 4 15.894V12.894ZM4 6.89398C4 6.62836 3.76563 6.39398 3.5 6.39398H0.5C0.234375 6.39398 0 6.62836 0 6.89398V9.89398C0 10.1596 0.234375 10.394 0.5 10.394H3.5C3.76563 10.394 4 10.1596 4 9.89398V6.89398ZM28 18.894C28 18.6284 27.7656 18.394 27.5 18.394H6.5C6.23438 18.394 6 18.6284 6 18.894V21.894C6 22.1596 6.23438 22.394 6.5 22.394H27.5C27.7656 22.394 28 22.1596 28 21.894V18.894ZM4 0.893981C4 0.628355 3.76563 0.393981 3.5 0.393981H0.5C0.234375 0.393981 0 0.628355 0 0.893981V3.89398C0 4.15961 0.234375 4.39398 0.5 4.39398H3.5C3.76563 4.39398 4 4.15961 4 3.89398V0.893981ZM28 12.894C28 12.6284 27.7656 12.394 27.5 12.394H6.5C6.23438 12.394 6 12.6284 6 12.894V15.894C6 16.1596 6.23438 16.394 6.5 16.394H27.5C27.7656 16.394 28 16.1596 28 15.894V12.894ZM28 6.89398C28 6.62836 27.7656 6.39398 27.5 6.39398H6.5C6.23438 6.39398 6 6.62836 6 6.89398V9.89398C6 10.1596 6.23438 10.394 6.5 10.394H27.5C27.7656 10.394 28 10.1596 28 9.89398V6.89398ZM28 0.893981C28 0.628355 27.7656 0.393981 27.5 0.393981H6.5C6.23438 0.393981 6 0.628355 6 0.893981V3.89398C6 4.15961 6.23438 4.39398 6.5 4.39398H27.5C27.7656 4.39398 28 4.15961 28 3.89398V0.893981Z" fill="#A8DC39"/>
</svg>
